<?xml version="1.0" standalone="no"?>
<!DOCTYPE svg PUBLIC "-//W3C//DTD SVG 20010904//EN"
 "http://www.w3.org/TR/2001/REC-SVG-20010904/DTD/svg10.dtd">
<svg version="1.0" xmlns="http://www.w3.org/2000/svg"
 width="700.000000pt" height="700.000000pt" viewBox="0 0 700.000000 700.000000"
 preserveAspectRatio="xMidYMid meet">
<metadata>
Created by potrace 1.11, written by Peter Selinger 2001-2013
</metadata>
<g transform="translate(0.000000,700.000000) scale(0.100000,-0.100000)"
fill="#000000" stroke="none">
<path d="M778 6990 c-376 -64 -687 -367 -762 -745 -15 -72 -16 -336 -14 -2780
l3 -2700 24 -75 c104 -333 328 -557 661 -661 l75 -24 2690 -3 c1806 -2 2712 1
2757 8 354 54 655 325 760 685 l23 80 0 2725 0 2725 -23 80 c-94 325 -331 564
-663 667 l-74 23 -2705 1 c-1488 1 -2726 -2 -2752 -6z m1163 -921 c51 -18 97
-55 122 -102 22 -41 22 -49 22 -372 l0 -330 -24 -42 c-67 -116 -217 -142 -314
-54 -67 60 -67 62 -67 434 l0 333 30 48 c49 77 147 113 231 85z m3349 -20 c22
-13 52 -40 67 -62 l28 -40 3 -326 c2 -220 0 -338 -8 -364 -17 -58 -73 -114
-132 -132 -92 -27 -182 7 -233 90 l-30 48 -3 311 c-3 345 0 371 54 435 61 71
168 88 254 40z m-3688 -716 c3 -96 8 -126 25 -159 35 -66 70 -101 130 -130
114 -56 256 -27 337 68 51 59 66 114 66 235 l0 103 1375 0 1375 0 0 -97 c0
-116 10 -155 53 -219 39 -58 103 -100 177 -116 110 -22 230 39 284 146 27 51
30 69 34 172 l5 116 146 -4 c138 -3 149 -5 206 -32 118 -58 197 -168 216 -299
12 -83 11 -3442 -1 -3526 -19 -137 -100 -244 -228 -304 l-67 -32 -2195 -3
c-1606 -2 -2211 0 -2255 8 -170 33 -292 162 -316 338 -6 41 -8 765 -7 1807 l3
1740 23 58 c44 109 139 200 245 232 27 9 99 14 203 14 l162 1 4 -117z"/>
<path d="M1648 4601 c-74 -24 -116 -51 -168 -107 -52 -56 -88 -134 -101 -216
-6 -39 -9 -498 -7 -1198 3 -1263 -2 -1175 72 -1286 42 -62 107 -114 186 -146
l55 -23 1820 0 1820 0 58 23 c107 44 188 127 234 242 17 42 18 120 21 1190 2
809 0 1164 -8 1210 -23 131 -120 254 -238 302 l-57 23 -1815 2 c-1730 2 -1818
1 -1872 -16z m2893 -834 c71 -47 69 -32 69 -617 0 -480 -2 -528 -18 -560 -34
-69 -124 -100 -190 -66 -15 8 -122 73 -237 145 l-210 132 -2 -138 c-3 -169 -6
-179 -44 -198 -27 -14 -97 -16 -607 -13 -573 3 -577 3 -634 26 -109 44 -196
131 -240 240 -23 57 -23 60 -23 530 l0 474 24 19 c22 18 47 19 596 19 546 0
576 -1 638 -20 105 -33 191 -106 242 -208 l26 -52 42 27 c382 243 452 283 493
283 26 0 53 -8 75 -23z"/>
</g>
</svg>
